<svg xmlns="http://www.w3.org/2000/svg" width="150" height="50" viewBox="0,0,150,50"><path fill="#222" d="M98.97 39.90L98.93 39.86L97.03 39.90L96.97 39.84Q95.95 39.78 95.00 39.89L95.05 39.95L95.17 40.06Q95.58 33.70 95.58 29.70L95.57 29.68L95.69 29.80Q91.60 23.01 83.94 14.33L84.02 14.40L84.00 14.38Q85.82 15.41 89.17 16.21L89.24 16.28L89.22 16.26Q94.15 21.72 97.16 26.94L97.15 26.93L97.23 27.01Q100.24 21.45 104.62 16.43L104.54 16.35L104.71 16.52Q107.11 16.10 109.62 15.30L109.44 15.12L109.59 15.27Q103.50 21.32 98.63 29.74L98.63 29.74L98.63 29.74Q98.52 36.67 98.82 39.75ZM108.08 17.34L110.70 14.40L110.74 14.44Q107.55 15.51 104.43 15.97L104.48 16.02L104.55 16.10Q100.20 20.69 97.39 25.80L97.38 25.79L97.57 25.97Q95.32 22.20 92.12 18.32L92.18 18.38L92.20 18.40Q91.88 18.35 91.39 18.28L91.40 18.29L91.45 18.33Q90.69 17.46 89.17 15.79L89.11 15.73L89.17 15.79Q85.70 14.95 82.74 13.39L82.75 13.41L82.74 13.40Q90.50 21.91 95.25 29.83L95.22 29.80L95.33 29.90Q95.10 36.11 94.49 40.26L94.48 40.25L94.62 40.39Q95.35 40.36 96.80 40.24L96.86 40.31L96.69 41.16L96.78 41.25Q96.74 41.67 96.66 42.20L96.72 42.26L96.69 42.23Q100.18 42.18 101.93 42.37L102.01 42.45L101.93 42.37Q100.71 37.72 100.59 31.74L100.65 31.80L100.57 31.72Q105.09 23.41 111.64 16.07L111.53 15.95L108.03 17.29Z"/><path fill="#222" d="M74.98 27.24L74.81 27.07L74.83 27.08Q75.72 27.18 77.13 27.03L77.20 27.10L77.22 27.11Q77.16 27.74 77.16 28.39L77.07 28.30L77.10 29.58L76.99 29.47Q76.26 29.59 75.43 29.66L75.50 29.73L75.48 29.72Q74.63 29.74 73.79 29.71L73.69 29.60L73.67 29.58Q70.92 35.85 67.49 40.46L67.35 40.32L67.42 40.39Q64.84 40.97 63.55 41.58L63.61 41.63L63.55 41.58Q67.83 36.04 70.87 29.75L70.88 29.76L68.11 29.62L68.18 29.69Q68.15 28.32 68.04 26.99L68.03 26.99L68.01 26.96Q69.99 27.19 72.04 27.19L72.10 27.25L73.97 23.52L73.94 23.49Q74.98 21.64 76.20 20.04L76.13 19.98L76.21 20.06Q74.50 20.05 72.90 20.05L72.88 20.04L73.01 20.17Q66.85 20.09 63.08 17.88L63.04 17.85L62.48 16.22L62.49 16.23Q62.07 15.31 61.69 14.44L61.65 14.40L61.84 14.59Q66.06 17.10 71.77 17.33L71.76 17.32L71.82 17.38Q76.85 17.50 81.99 15.52L82.07 15.59L82.12 15.65Q81.79 15.92 81.29 16.80L81.39 16.89L81.34 16.85Q77.79 21.67 74.94 27.19ZM82.89 18.17L83.05 18.32L84.07 16.34L84.07 16.34Q83.00 16.72 81.32 17.44L81.26 17.38L81.48 17.10L81.57 17.19Q81.62 16.97 81.73 16.86L81.71 16.83L81.75 16.87Q82.08 16.14 82.80 14.81L82.92 14.92L82.79 14.79Q77.47 17.08 71.72 16.85L71.82 16.96L71.74 16.87Q65.69 16.58 60.93 13.61L61.10 13.77L60.93 13.61Q62.06 15.57 62.90 18.24L62.85 18.19L62.86 18.20Q64.06 18.94 64.86 19.24L64.70 19.09L64.76 19.15Q64.85 19.43 65.31 21.29L65.38 21.37L65.36 21.35Q68.58 22.67 74.10 22.51L74.02 22.43L74.08 22.49Q73.75 23.04 71.77 26.81L71.89 26.92L71.76 26.80Q69.82 26.91 67.84 26.72L67.82 26.70L67.72 26.60Q67.81 27.45 67.81 28.33L67.84 28.35L67.80 30.03L69.43 29.98L69.41 31.38L69.45 31.41Q65.59 38.86 62.81 42.44L62.89 42.52L62.72 42.35Q64.36 41.63 66.00 41.13L65.96 41.10L66.07 41.20Q65.35 42.08 63.98 43.79L64.00 43.82L63.94 43.76Q67.16 42.72 69.60 42.49L69.65 42.54L69.61 42.50Q72.51 38.70 75.63 31.92L75.64 31.93L79.03 32.08L79.13 32.19Q79.08 31.30 79.08 30.39L79.05 30.35L78.97 28.49L78.90 28.42Q78.67 28.45 78.12 28.49L78.23 28.61L78.16 28.53Q77.71 28.67 77.45 28.67L77.26 28.49L77.35 28.58Q77.26 28.38 77.30 28.22L77.44 28.36L77.45 28.10L77.35 28.01Q79.89 22.89 82.97 18.25Z"/><path fill="#222" d="M31.13 41.57L31.10 41.54L31.17 41.61Q28.94 41.10 26.77 40.95L26.79 40.96L26.89 41.06Q25.46 39.63 22.79 35.79L22.72 35.71L22.68 35.68Q20.48 38.76 18.08 41.20L18.16 41.28L16.03 41.62L16.10 41.69Q14.99 41.84 14.00 42.11L13.91 42.02L14.06 42.17Q18.27 38.08 21.28 33.97L21.27 33.96L21.10 33.79Q17.99 29.76 12.58 24.97L12.57 24.95L12.53 24.91Q14.83 25.73 17.53 26.15L17.43 26.04L17.38 25.99Q20.86 29.13 22.77 31.84L22.87 31.94L22.71 31.78Q24.87 28.76 27.61 26.25L27.59 26.23L27.58 26.21Q30.68 25.93 32.51 25.44L32.53 25.46L32.53 25.46Q28.06 29.18 24.37 33.75L24.34 33.72L24.26 33.64Q27.56 38.23 31.03 41.47ZM33.96 24.68L33.93 24.66L34.07 24.79Q31.03 25.48 27.49 25.83L27.64 25.97L27.64 25.97Q24.57 28.47 22.86 30.94L22.96 31.04L23.03 31.11Q21.99 29.91 20.35 27.93L20.50 28.09L20.32 28.10L20.24 28.01Q20.10 27.99 19.99 27.99L20.03 28.03L19.97 27.98Q19.22 27.15 17.58 25.70L17.58 25.69L17.51 25.63Q14.02 25.18 11.16 23.96L11.04 23.84L11.04 23.84Q16.68 28.75 20.71 33.89L20.61 33.80L20.67 33.85Q17.25 38.43 12.83 42.73L12.86 42.75L12.88 42.77Q13.23 42.78 16.73 41.94L16.70 41.91L16.60 41.81Q15.07 43.14 13.43 44.47L13.47 44.51L13.47 44.51Q16.76 43.68 19.92 43.49L19.79 43.36L19.88 43.46Q22.35 41.28 24.25 38.54L24.24 38.53L24.16 38.44Q25.63 40.26 26.85 41.44L26.87 41.46L26.73 41.32Q26.94 41.42 27.02 41.50L26.92 41.40L27.16 41.44L27.18 41.47Q28.38 42.51 29.71 43.57L29.67 43.54L29.78 43.64Q33.26 44.08 36.16 45.11L36.16 45.12L36.26 45.21Q30.14 40.81 26.44 35.63L26.37 35.56L26.31 35.49Q30.09 30.59 34.66 26.52L34.51 26.38L34.50 26.36Q33.66 26.82 32.67 27.05L32.70 27.07L30.60 27.45L30.62 27.47Q31.84 26.60 34.01 24.73Z"/><path fill="#333" d="M49.63 39.90L49.60 39.87L47.55 39.76L47.60 39.81Q46.72 39.88 45.77 39.99L45.79 40.01L45.71 39.94Q46.38 33.83 46.38 29.84L46.40 29.85L46.32 29.77Q42.33 23.08 34.68 14.40L34.75 14.47L34.72 14.44Q36.47 15.39 39.82 16.19L39.75 16.12L39.75 16.13Q44.89 21.80 47.90 27.01L47.84 26.95L47.94 27.05Q50.99 21.54 55.37 16.51L55.36 16.50L55.34 16.49Q57.63 15.96 60.15 15.16L60.28 15.29L60.18 15.19Q54.19 21.35 49.31 29.76L49.29 29.73L49.18 29.62Q49.32 36.81 49.63 39.89ZM58.73 17.32L61.44 14.47L61.33 14.37Q58.38 15.68 55.26 16.13L55.24 16.12L55.19 16.07Q50.88 20.71 48.07 25.81L48.04 25.79L48.19 25.93Q46.05 22.27 42.85 18.39L42.78 18.31L42.88 18.42Q42.61 18.41 42.12 18.34L42.11 18.33L41.96 18.18Q41.42 17.52 39.89 15.85L39.79 15.74L39.93 15.88Q36.36 14.94 33.39 13.38L33.44 13.43L33.57 13.56Q41.14 21.89 45.90 29.80L45.92 29.83L46.01 29.92Q45.86 36.20 45.25 40.35L45.16 40.26L45.31 40.41Q46.00 40.34 47.45 40.23L47.54 40.32L47.40 41.21L47.49 41.30Q47.52 41.78 47.44 42.32L47.29 42.17L47.33 42.20Q50.99 42.33 52.75 42.52L52.70 42.47L52.67 42.44Q51.48 37.83 51.37 31.85L51.36 31.84L51.33 31.81Q55.60 23.25 62.15 15.90L62.19 15.95L58.58 17.17Z"/><path fill="#333" d="M126.14 40.90L126.28 41.04L126.09 40.85Q124.85 39.24 123.56 36.15L123.51 36.10L121.46 31.05L121.50 31.09Q119.81 34.99 119.20 36.29L119.32 36.41L119.35 36.43Q117.77 39.24 116.17 41.14L116.31 41.27L116.24 41.21Q115.91 41.26 115.15 41.37L115.04 41.26L115.14 41.36Q115.09 33.89 109.27 27.95L109.17 27.85L109.25 27.93Q107.41 26.02 105.39 24.53L105.53 24.67L105.58 24.72Q107.26 25.11 109.12 25.41L109.23 25.52L109.26 25.55Q115.26 30.45 116.71 36.69L116.61 36.59L116.73 36.71Q117.55 34.78 118.73 31.59L118.89 31.75L118.85 31.71Q120.10 27.86 120.67 26.56L120.71 26.60L122.11 26.59L122.20 26.68Q122.99 28.32 124.17 31.59L124.19 31.60L124.10 31.52Q125.46 35.19 126.10 36.60L126.05 36.55L126.06 36.56Q127.86 30.25 133.34 25.68L133.45 25.79L133.35 25.68Q134.68 25.73 137.42 25.15L137.47 25.20L137.33 25.07Q128.78 31.17 127.60 41.15L127.48 41.02L126.85 40.93L126.92 40.99Q126.44 40.82 126.10 40.86ZM129.27 43.50L131.20 43.56L131.25 43.61Q130.92 42.07 130.92 40.54L130.89 40.52L130.98 40.61Q130.95 37.34 132.36 34.11L132.37 34.11L132.39 34.13Q134.24 29.47 138.35 26.39L138.40 26.43L138.36 26.39Q137.23 26.75 135.36 27.09L135.38 27.11L135.24 26.97Q137.38 25.49 138.67 24.58L138.66 24.56L136.09 24.96L135.99 24.86Q134.78 25.10 133.44 25.25L133.63 25.44L133.46 25.27Q128.30 29.51 126.36 34.53L126.40 34.58L126.44 34.62Q125.87 32.52 124.50 28.26L124.47 28.23L124.40 28.16Q124.07 28.17 123.80 28.17L123.78 28.15L123.37 28.27L123.24 28.15Q123.12 27.84 122.32 26.09L122.37 26.13L120.30 26.11L120.42 26.24Q119.39 28.97 117.29 34.61L117.34 34.65L117.35 34.66Q115.89 30.85 112.81 27.57L112.83 27.59L112.94 27.70Q112.51 27.54 112.20 27.50L112.30 27.59L111.66 27.41L111.70 27.45Q110.79 26.58 109.00 24.98L109.03 25.02L109.12 25.10Q105.99 24.48 104.31 23.99L104.30 23.97L104.30 23.98Q115.06 31.46 114.68 41.78L114.67 41.77L114.71 41.81Q114.89 41.80 115.25 41.76L115.25 41.76L115.08 41.59Q115.60 41.71 115.79 41.71L115.72 41.64L115.69 41.61Q115.64 41.41 115.83 43.50L115.91 43.58L117.83 43.41L117.92 43.49Q120.37 40.54 122.62 34.79L122.76 34.93L122.61 34.79Q124.26 38.79 126.12 41.46L126.13 41.47L126.08 41.41Q126.40 41.39 126.67 41.41L126.58 41.33L126.55 41.30Q126.89 41.39 127.16 41.39L127.19 41.42L129.27 43.50Z"/></svg>